<?xml version="1.0" encoding="UTF-8" standalone="no"?>
<!-- Generator: Adobe Adobe Illustrator 24.2.0, SVG Export Plug-In . SVG Version: 6.00 Build 0)  -->

<svg
   version="1.1"
   x="0px"
   y="0px"
   width="399.71042"
   height="455.76938"
   viewBox="0 0 399.71042 455.76938"
   xml:space="preserve"
   id="svg275"
   sodipodi:docname="pyroll_icon.svg"
   inkscape:version="1.3.2 (091e20ef0f, 2023-11-25, custom)"
   inkscape:export-filename="pyroll-bird.png"
   inkscape:export-xdpi="300"
   inkscape:export-ydpi="300"
   xmlns:inkscape="http://www.inkscape.org/namespaces/inkscape"
   xmlns:sodipodi="http://sodipodi.sourceforge.net/DTD/sodipodi-0.dtd"
   xmlns="http://www.w3.org/2000/svg"
   xmlns:svg="http://www.w3.org/2000/svg"><defs
   id="defs279"><rect
   x="258.78879"
   y="437.39072"
   width="103.55372"
   height="80.393494"
   id="rect4194" />
	

						
						
						
						
						
						
						
						
						
						
						
						
						
							
						
						
						
							
						
						
						
						
						
						
						
						
						
						
						
						
						
						
						
						
						
						
						
						
						
						
						
						
						
						
						
						
						
						
						
						
						
						
						
						
						
						
						
						
						
						
						
						
						
						
						
						
						
						
						
						
						
						
						
						
						
						
						
						
						
						
						
						
						
						
						
						
						
						
						
						
						
						
						
						
						
						
						
						
						
						
						
						
						
						
						
						
						
						
						
						
						
						
						
						
						
						
						
						
						
						
						
						
						
						
						
						
						
						
					
		
	</defs><sodipodi:namedview
   id="namedview277"
   pagecolor="#7f7f7f"
   bordercolor="#666666"
   borderopacity="1.0"
   inkscape:showpageshadow="2"
   inkscape:pageopacity="0"
   inkscape:pagecheckerboard="true"
   inkscape:deskcolor="#d1d1d1"
   showgrid="false"
   inkscape:zoom="2"
   inkscape:cx="198.25"
   inkscape:cy="220.75"
   inkscape:window-width="1920"
   inkscape:window-height="1011"
   inkscape:window-x="0"
   inkscape:window-y="0"
   inkscape:window-maximized="1"
   inkscape:current-layer="layer2" />
<style
   type="text/css"
   id="style2">
	.st0{fill:#303030;}
	.st1{fill:#FFDD00;}
	.st2{fill:#FFFFFF;stroke:#FFDD00;stroke-miterlimit:10;}
	.st3{fill:#CFBA00;}
	.st4{fill:#FFE600;}
	.st5{fill:#4F4F4E;}
	.st6{fill:#D4691E;}
	.st7{fill:#D4851E;}
	.st8{fill:#BD7100;}
	.st9{fill:#FFFFFF;}
	.st10{stroke:#000000;stroke-miterlimit:10;}
	.st11{fill:#303030;stroke:#FFFFFF;stroke-width:2;stroke-miterlimit:10;}
	.st12{fill:none;}
	.st13{fill:url(#SVGID_1_);stroke:#404040;stroke-miterlimit:10;}
	.st14{fill:url(#SVGID_2_);stroke:#404040;stroke-miterlimit:10;}
	.st15{fill:url(#SVGID_3_);stroke:#404040;stroke-miterlimit:10;}
	.st16{fill:url(#SVGID_4_);stroke:#404040;stroke-miterlimit:10;}
	.st17{fill:url(#SVGID_5_);stroke:#404040;stroke-miterlimit:10;}
	.st18{fill:url(#SVGID_6_);stroke:#404040;stroke-miterlimit:10;}
	.st19{fill:url(#SVGID_7_);stroke:#404040;stroke-miterlimit:10;}
	.st20{fill:url(#SVGID_8_);stroke:#404040;stroke-miterlimit:10;}
	.st21{fill:url(#SVGID_9_);stroke:#404040;stroke-miterlimit:10;}
	.st22{fill:url(#SVGID_10_);stroke:#404040;stroke-miterlimit:10;}
	.st23{fill:url(#SVGID_11_);stroke:#404040;stroke-miterlimit:10;}
	.st24{fill:url(#SVGID_12_);stroke:#404040;stroke-miterlimit:10;}
	.st25{fill:url(#SVGID_13_);stroke:#404040;stroke-miterlimit:10;}
	.st26{fill:url(#SVGID_14_);stroke:#404040;stroke-miterlimit:10;}
	.st27{fill:url(#SVGID_15_);stroke:#404040;stroke-miterlimit:10;}
	.st28{fill:url(#SVGID_16_);stroke:#404040;stroke-miterlimit:10;}
	.st29{fill:url(#SVGID_17_);stroke:#404040;stroke-miterlimit:10;}
	.st30{fill:url(#SVGID_18_);stroke:#404040;stroke-miterlimit:10;}
	.st31{fill:url(#SVGID_19_);stroke:#404040;stroke-miterlimit:10;}
	.st32{fill:url(#SVGID_20_);stroke:#404040;stroke-miterlimit:10;}
	.st33{fill:url(#SVGID_21_);stroke:#404040;stroke-miterlimit:10;}
	.st34{fill:url(#SVGID_22_);stroke:#404040;stroke-miterlimit:10;}
	.st35{fill:url(#SVGID_23_);stroke:#404040;stroke-miterlimit:10;}
	.st36{fill:url(#SVGID_24_);stroke:#404040;stroke-miterlimit:10;}
	.st37{fill:url(#SVGID_25_);stroke:#404040;stroke-miterlimit:10;}
	.st38{fill:url(#SVGID_26_);stroke:#404040;stroke-miterlimit:10;}
	.st39{fill:url(#SVGID_27_);stroke:#404040;stroke-miterlimit:10;}
	.st40{fill:url(#SVGID_28_);stroke:#404040;stroke-miterlimit:10;}
	.st41{fill:url(#SVGID_29_);stroke:#404040;stroke-miterlimit:10;}
	.st42{fill:url(#SVGID_30_);stroke:#404040;stroke-miterlimit:10;}
	.st43{fill:url(#SVGID_31_);stroke:#404040;stroke-miterlimit:10;}
	.st44{fill:url(#SVGID_32_);stroke:#404040;stroke-miterlimit:10;}
	.st45{fill:url(#SVGID_33_);stroke:#404040;stroke-miterlimit:10;}
	.st46{fill:url(#SVGID_34_);stroke:#404040;stroke-miterlimit:10;}
	.st47{fill:url(#SVGID_35_);stroke:#404040;stroke-miterlimit:10;}
	.st48{fill:url(#SVGID_36_);stroke:#404040;stroke-miterlimit:10;}
	.st49{fill:url(#SVGID_37_);stroke:#404040;stroke-miterlimit:10;}
	.st50{fill:url(#SVGID_38_);stroke:#404040;stroke-miterlimit:10;}
	.st51{fill:url(#SVGID_39_);stroke:#404040;stroke-miterlimit:10;}
	.st52{fill:url(#SVGID_40_);stroke:#404040;stroke-miterlimit:10;}
	.st53{fill:url(#SVGID_41_);stroke:#404040;stroke-miterlimit:10;}
	.st54{fill:url(#SVGID_42_);stroke:#404040;stroke-miterlimit:10;}
	.st55{fill:url(#SVGID_43_);stroke:#404040;stroke-miterlimit:10;}
	.st56{fill:url(#SVGID_44_);stroke:#404040;stroke-miterlimit:10;}
	.st57{fill:url(#SVGID_45_);stroke:#404040;stroke-miterlimit:10;}
	.st58{fill:url(#SVGID_46_);stroke:#404040;stroke-miterlimit:10;}
	.st59{fill:url(#SVGID_47_);stroke:#404040;stroke-miterlimit:10;}
	.st60{fill:url(#SVGID_48_);stroke:#404040;stroke-miterlimit:10;}
	.st61{fill:url(#SVGID_49_);stroke:#404040;stroke-miterlimit:10;}
	.st62{fill:url(#SVGID_50_);stroke:#404040;stroke-miterlimit:10;}
	.st63{fill:url(#SVGID_51_);stroke:#404040;stroke-miterlimit:10;}
	.st64{fill:url(#SVGID_52_);stroke:#404040;stroke-miterlimit:10;}
	.st65{fill:url(#SVGID_53_);stroke:#404040;stroke-miterlimit:10;}
	.st66{fill:url(#SVGID_54_);stroke:#404040;stroke-miterlimit:10;}
	.st67{fill:url(#SVGID_55_);stroke:#404040;stroke-miterlimit:10;}
	.st68{fill:url(#SVGID_56_);stroke:#404040;stroke-miterlimit:10;}
	.st69{fill:url(#SVGID_57_);stroke:#404040;stroke-miterlimit:10;}
	.st70{fill:url(#SVGID_58_);stroke:#404040;stroke-miterlimit:10;}
	.st71{fill:url(#SVGID_59_);stroke:#404040;stroke-miterlimit:10;}
	.st72{fill:url(#SVGID_60_);stroke:#404040;stroke-miterlimit:10;}
	.st73{fill:url(#SVGID_61_);stroke:#404040;stroke-miterlimit:10;}
	.st74{fill:url(#SVGID_62_);stroke:#404040;stroke-miterlimit:10;}
	.st75{fill:#4D4D4D;}
	.st76{fill:#4C4C4C;}
	.st77{fill:#4A4A4A;}
	.st78{fill:#494949;}
	.st79{fill:#484848;}
	.st80{fill:#474747;}
	.st81{fill:#454545;}
	.st82{fill:#444444;}
	.st83{fill:#434343;}
	.st84{fill:#424242;}
	.st85{fill:#404040;}
	.st86{fill:#3F3F3F;}
	.st87{fill:#3E3E3E;}
	.st88{fill:#3D3D3D;}
	.st89{fill:#3B3B3B;}
	.st90{fill:#3A3A3A;}
	.st91{fill:#393939;}
	.st92{fill:#383838;}
	.st93{fill:#363636;}
	.st94{fill:#353535;}
	.st95{fill:#343434;}
	.st96{fill:#323232;}
	.st97{fill:#313131;}
	.st98{fill:#2F2F2F;}
	.st99{fill:#2D2D2D;}
	.st100{fill:#2C2C2C;}
	.st101{fill:#2B2B2B;}
	.st102{fill:#2A2A2A;}
	.st103{fill:#282828;}
	.st104{fill:#272727;}
	.st105{fill:#262626;}
	.st106{fill:#252525;}
	.st107{fill:#232323;}
	.st108{fill:#222222;}
	.st109{fill:#212121;}
	.st110{fill:#202020;}
	.st111{fill:#1E1E1E;}
	.st112{fill:#1D1D1D;}
	.st113{fill:#1C1C1C;}
	.st114{fill:#1B1B1B;}
	.st115{fill:#191919;}
	.st116{fill:#181818;}
	.st117{fill:#171717;}
	.st118{fill:#151515;}
	.st119{fill:#141414;}
	.st120{fill:#131313;}
	.st121{fill:#121212;}
	.st122{fill:#101010;}
	.st123{fill:#0F0F0F;}
	.st124{fill:#0E0E0E;}
	.st125{fill:#0D0D0D;}
	.st126{fill:#0B0B0B;}
	.st127{fill:#0A0A0A;}
	.st128{fill:#090909;}
	.st129{fill:#080808;}
	.st130{fill:#060606;}
	.st131{fill:#050505;}
	.st132{fill:#040404;}
	.st133{fill:#030303;}
	.st134{fill:#010101;}
	.st135{fill:#D4D4D4;}
	.st136{fill:#FFFFFF;stroke:#D4D4D4;stroke-miterlimit:10;}
	.st137{fill:#DEDEDE;}
	.st138{fill:#FFFFFF;stroke:#DEDEDE;stroke-miterlimit:10;}
	.st139{fill:#8F8F8F;}
	.st140{fill:#A1A1A1;}
	.st141{fill:#FFFFFF;stroke:#FFDD00;stroke-width:0.6124;stroke-miterlimit:10;}
	.st142{fill:#FFFFFF;stroke:#FFDD00;stroke-width:0.3896;stroke-miterlimit:10;}
	.st143{stroke:#000000;stroke-width:3.5702;stroke-miterlimit:10;}
</style>









<g
   inkscape:groupmode="layer"
   id="layer9"
   inkscape:label="background"
   transform="translate(45.770463,-28.208175)"><path
     id="path1"
     style="fill:#ffffff;fill-opacity:1;stroke:#ffffff;stroke-width:3.77953;stroke-linecap:butt;stroke-linejoin:round;stroke-dasharray:none;stroke-opacity:1"
     d="m 211.77493,104.52444 c -27.90179,25.37174 -31.68276,65.51233 -30.44531,101.72071 -1.92574,-0.005 -3.87061,-0.004 -5.82422,0.20312 -41.59381,4.40901 -114.907254,95.56143 -130.228517,216.86328 l -70.044922,21.25 c -16.730934,5.07555 9.047981,66.42929 22.9355474,57.41211 L 56.608915,464.02835 c 18.686388,-3.0997 36.68456,-7.63509 53.734375,-13.58984 0.47859,7.23416 2.72946,13.19618 7.79492,16.01757 l 23.15235,45.66797 c -5.93551,1.22984 -11.77238,2.53723 -15.37696,3.4375 -6.26991,1.56599 -3.02944,2.90156 1.01367,2.85547 3.11705,-0.0355 10.87549,-0.19734 15.73829,-0.61523 10.65765,8.04672 18.52288,18.70406 25.83203,26.0664 7.22096,7.27352 7.47879,-0.0963 3.00781,-4.91797 -7.07573,-7.63066 -12.81807,-14.67543 -18.97266,-20.48828 12.43758,4.19176 25.83369,12.25293 32.71485,16.16016 6.91528,3.92662 5.48672,-1.76347 -1.67969,-6.46484 -7.65125,-5.01948 -16.90123,-9.60624 -25.92774,-13.22461 12.15085,-0.97065 24.6124,0.0632 32.6875,0.97461 7.63423,0.86166 12.09314,-0.57859 -0.45312,-4.11719 -14.31524,-4.03757 -29.93373,-2.31869 -38.98047,-0.62891 l -18.31836,-49.1914 c 8.0061,-5.43762 16.01078,-16.4609 21.16016,-28.375 1.22468,3.75441 3.28798,6.744 6.45117,8.50586 l 23.15039,45.66796 c -5.9355,1.22984 -11.77042,2.53723 -15.375,3.4375 -6.26991,1.56599 -3.02944,2.90156 1.01367,2.85547 3.11705,-0.0355 10.87549,-0.19734 15.73828,-0.61523 10.65766,8.04672 18.52289,18.70406 25.83203,26.0664 7.22097,7.27352 7.4788,-0.0963 3.00782,-4.91796 -7.07574,-7.63067 -12.81808,-14.67739 -18.97266,-20.49024 12.43758,4.19176 25.83369,12.25488 32.71484,16.16211 6.91529,3.92662 5.48673,-1.76347 -1.67968,-6.46484 -7.65126,-5.01948 -16.90124,-9.60624 -25.92774,-13.22461 12.15085,-0.97065 24.6124,0.0632 32.6875,0.97461 7.63423,0.86166 12.09118,-0.57858 -0.45508,-4.11719 -14.31523,-4.03757 -29.93177,-2.31868 -38.97851,-0.62891 l -18.32031,-49.1914 c 10.72604,-7.28496 21.45652,-24.59232 25.31054,-40.64063 39.93235,-38.51996 63.21133,-92.15636 59.73438,-160.1875 -0.31608,-6.18445 1.00119,-11.5579 5.66992,-14.43164 8.44501,-5.19815 19.73072,-11.30547 27.4707,-23.10156 21.89904,-0.30047 45.1102,4.56756 63.83203,11.44922 -11.43616,-9.59498 -23.05596,-23.75583 -47.5664,-26.86524 24.07583,2.29773 36.94293,12.9448 56.70508,27.60157 -7.36458,-24.95873 -33.54467,-41.08954 -56.73828,-52.80664 1.47138,-67.170453 -75.8919,-73.543039 -97.26563,-54.10743 z"
     transform="translate(-13.651396,-64.832842)"
     sodipodi:nodetypes="scscccccccsscsscsscsscccccsscsscsscsscccsscccccs" /></g><g
   inkscape:groupmode="layer"
   id="layer8"
   inkscape:label="back-foot"
   transform="translate(-34.616128,-70.988667)"><g
     id="g8"
     transform="translate(66.735195,-22.05235)"
     style="stroke:none"><path
       id="path7"
       style="fill:#000000;fill-opacity:1;stroke:none;stroke-width:0;stroke-linecap:butt;stroke-linejoin:miter;stroke-dasharray:none;stroke-opacity:1"
       d="m 160.18717,442.09998 23.15108,45.66903 c -5.93551,1.22984 -11.7707,2.53762 -15.37528,3.43789 -6.26992,1.56599 -3.03076,2.89994 1.01236,2.85385 3.11705,-0.0355 10.87659,-0.19649 15.73939,-0.61438 10.65767,8.04673 18.5229,18.70324 25.83205,26.06559 7.22097,7.27352 7.4787,-0.0954 3.00771,-4.91703 -7.07574,-7.63067 -12.81832,-14.67665 -18.97291,-20.4895 12.43759,4.19176 25.83386,12.25441 32.71502,16.16164 6.91529,3.92662 5.48688,-1.7632 -1.67954,-6.46458 -7.65126,-5.01948 -16.90111,-9.60614 -25.92762,-13.22452 12.15086,-0.97065 24.61133,0.0631 32.68644,0.97449 7.63423,0.86166 12.09269,-0.58016 -0.45358,-4.11877 -14.31525,-4.03757 -29.93261,-2.31787 -38.97936,-0.62809 l -18.31937,-49.19148 z"
       sodipodi:nodetypes="ccsscsscsscssccc" /><path
       style="font-variation-settings:normal;opacity:1;vector-effect:non-scaling-stroke;fill:#ffdd00;fill-opacity:1;stroke:none;stroke-width:1;stroke-linecap:butt;stroke-linejoin:miter;stroke-miterlimit:4;stroke-dasharray:none;stroke-dashoffset:0;stroke-opacity:1;-inkscape-stroke:hairline;stop-color:#000000;stop-opacity:1"
       d="m 166.14871,376.92814 c -7.16031,7.32358 -23.63598,55.32741 -5.96154,65.17184 3.3347,1.85738 11.55171,-2.52663 14.43639,-4.48586 14.32507,-9.72936 28.65684,-37.33681 26.60716,-55.94425 -0.99769,-9.05727 -27.75267,-12.2382 -35.08201,-4.74173 z"
       id="path8"
       sodipodi:nodetypes="sssss" /></g></g><g
   inkscape:groupmode="layer"
   id="layer1"
   inkscape:label="body"
   transform="translate(-9.9295378,-68.685447)"><path
     id="path2697"
     style="fill:#ffdd00;fill-opacity:1;stroke:none;stroke-width:0;stroke-linecap:butt;stroke-linejoin:miter;stroke-dasharray:none;stroke-opacity:1"
     d="m 253.82431,80.1696 c -28.58577,25.9937 -31.90024,67.51657 -30.38987,104.40219 -32.07412,37.16662 -106.3201,162.24085 -143.513671,257.75 127.513141,-14.32327 228.792391,-92.99026 221.795671,-229.89033 -0.31608,-6.18446 1.42722,-10.95899 5.66917,-14.43193 8.80661,-4.55883 19.73072,-11.30547 27.47071,-23.10157 l 16.23242,-40.62109 C 352.5298,68.491167 276.31142,59.721542 253.82431,80.1696 Z"
     sodipodi:nodetypes="sccscccs" /></g><g
   inkscape:groupmode="layer"
   id="layer2"
   inkscape:label="peak"
   transform="translate(-9.9295378,-68.685447)"
   style="display:inline"><path
     id="path227"
     class="st6"
     d="m 351.08874,134.27687 c -4.84762,10.70726 -11.43798,17.85396 -23.75781,24.81641 4.58771,4.18999 7.12646,9.33676 7.52539,15.80468 21.89906,-0.30047 45.11018,4.56756 63.83203,11.44922 -11.43618,-9.59499 -23.05628,-23.75648 -47.56675,-26.86589 24.07586,2.29773 36.94325,12.94544 56.70542,27.60222 -7.36458,-24.95875 -33.54464,-41.08952 -56.73828,-52.80664 z"
     sodipodi:nodetypes="ccccccc" /><path
     class="st0"
     d="m 355.7038,143.19984 c 2.01468,-1.41096 4.72222,-0.75446 6.05011,1.45824 l 0.41056,0.67679 -0.71876,0.50457 c -1.95841,1.36589 -4.5936,0.73311 -5.8855,-1.41242 l -0.4708,-0.79198 z"
     id="path261"
     style="fill:#000000;fill-opacity:1" /></g><g
   inkscape:groupmode="layer"
   id="layer3"
   inkscape:label="eye"
   transform="translate(-9.9295378,-68.685447)"><path
     id="path2"
     style="font-variation-settings:normal;opacity:1;vector-effect:non-scaling-stroke;fill:#000000;fill-opacity:1;fill-rule:evenodd;stroke:none;stroke-width:0.999999;stroke-linecap:butt;stroke-linejoin:miter;stroke-miterlimit:4;stroke-dasharray:none;stroke-dashoffset:0;stroke-opacity:1;-inkscape-stroke:hairline;stop-color:#000000;stop-opacity:1"
     d="m 306.98631,101.98405 c -10.01699,-1.49851 -24.57555,11.16429 -35.46341,12.75005 -2.05784,0.29971 -2.94188,4.06374 -0.89605,5.08175 10.3566,5.15347 22.27671,22.56822 33.90605,22.00346 23.35339,-1.13412 26.1228,-2.54245 39.3848,4.13042 2.58487,-0.99562 9.28591,-9.83986 7.19745,-11.65952 -19.25402,-7.22201 -29.35457,-30.09598 -44.12884,-32.30616 z"
     sodipodi:nodetypes="ssssccs" /><ellipse
     style="font-variation-settings:normal;opacity:1;vector-effect:non-scaling-stroke;fill:#d4691e;fill-opacity:1;fill-rule:evenodd;stroke:none;stroke-width:0.999999;stroke-linecap:butt;stroke-linejoin:miter;stroke-miterlimit:4;stroke-dasharray:none;stroke-dashoffset:0;stroke-opacity:1;-inkscape-stroke:hairline;stop-color:#000000;stop-opacity:1"
     id="path3"
     cx="314.06299"
     cy="95.201096"
     rx="14"
     ry="16"
     transform="rotate(5)" /><ellipse
     style="font-variation-settings:normal;opacity:1;vector-effect:non-scaling-stroke;fill:#000000;fill-opacity:1;fill-rule:evenodd;stroke:none;stroke-width:0.999999;stroke-linecap:butt;stroke-linejoin:miter;stroke-miterlimit:4;stroke-dasharray:none;stroke-dashoffset:0;stroke-opacity:1;-inkscape-stroke:hairline;stop-color:#000000;stop-opacity:1"
     id="ellipse3"
     cx="314.06299"
     cy="95.201096"
     rx="10"
     ry="12"
     transform="rotate(5)" /><ellipse
     class="st9"
     cx="294.89789"
     cy="148.84666"
     rx="3.8699999"
     ry="4.21"
     id="ellipse245"
     transform="rotate(-5)" /></g><g
   inkscape:groupmode="layer"
   id="layer6"
   inkscape:label="tail"
   transform="translate(-9.9295378,-68.685447)"><path
     style="display:inline;fill:#000000;fill-opacity:1;stroke:none;stroke-width:0;stroke-linecap:butt;stroke-linejoin:miter;stroke-dasharray:none;stroke-opacity:1"
     d="M 132.79912,417.50397 40.21533,477.61851 C 26.32775,486.6357 0.54866857,425.28168 17.27962,420.20613 l 107.22217,-32.52721 c 6.92268,-2.10008 18.24567,23.3656 8.29733,29.82505 z"
     id="path3880"
     sodipodi:nodetypes="sssss" /></g><g
   inkscape:groupmode="layer"
   id="layer7"
   inkscape:label="front-foot"
   transform="translate(-9.9295378,-68.685447)"><g
     id="g6"
     style="stroke:none"><path
       id="path4039"
       style="fill:#000000;fill-opacity:1;stroke:none;stroke-width:0;stroke-linecap:butt;stroke-linejoin:miter;stroke-dasharray:none;stroke-opacity:1"
       d="m 160.18717,442.09998 23.15108,45.66903 c -5.93551,1.22984 -11.7707,2.53762 -15.37528,3.43789 -6.26992,1.56599 -3.03076,2.89994 1.01236,2.85385 3.11705,-0.0355 10.87659,-0.19649 15.73939,-0.61438 10.65767,8.04673 18.5229,18.70324 25.83205,26.06559 7.22097,7.27352 7.4787,-0.0954 3.00771,-4.91703 -7.07574,-7.63067 -12.81832,-14.67665 -18.97291,-20.4895 12.43759,4.19176 25.83386,12.25441 32.71502,16.16164 6.91529,3.92662 5.48688,-1.7632 -1.67954,-6.46458 -7.65126,-5.01948 -16.90111,-9.60614 -25.92762,-13.22452 12.15086,-0.97065 24.61133,0.0631 32.68644,0.97449 7.63423,0.86166 12.09269,-0.58016 -0.45358,-4.11877 -14.31525,-4.03757 -29.93261,-2.31787 -38.97936,-0.62809 l -18.31937,-49.19148 z"
       sodipodi:nodetypes="ccsscsscsscssccc" /><path
       style="font-variation-settings:normal;opacity:1;vector-effect:non-scaling-stroke;fill:#ffdd00;fill-opacity:1;stroke:none;stroke-width:1;stroke-linecap:butt;stroke-linejoin:miter;stroke-miterlimit:4;stroke-dasharray:none;stroke-dashoffset:0;stroke-opacity:1;-inkscape-stroke:hairline;stop-color:#000000;stop-opacity:1"
       d="m 166.14871,376.92814 c -7.16031,7.32358 -23.63598,55.32741 -5.96154,65.17184 3.3347,1.85738 11.55171,-2.52663 14.43639,-4.48586 14.32507,-9.72936 28.65684,-37.33681 26.60716,-55.94425 -0.99769,-9.05727 -27.75267,-12.2382 -35.08201,-4.74173 z"
       id="path5"
       sodipodi:nodetypes="sssss" /></g></g><g
   inkscape:groupmode="layer"
   id="layer4"
   inkscape:label="wing"
   style="display:inline"
   transform="translate(-9.9295378,-68.685447)"><path
     id="path3581"
     style="fill:#000000;fill-opacity:1;stroke:none;stroke-width:0;stroke-linecap:butt;stroke-linejoin:miter;stroke-dasharray:none;stroke-opacity:1"
     d="M 84.564857,434.61107 C 158.31518,392.50752 292.96032,312.4784 284.65812,234.31025 281.11415,200.94248 251.47589,179.41954 217.55488,182.09215 171.97957,186.98161 88.256668,295.89841 84.564857,434.61107 Z"
     sodipodi:nodetypes="cssc" /></g></svg>
